<?xml version="1.0" encoding="UTF-8"?>
<svg width="24px" height="24px" viewBox="0 0 24 24" version="1.1" xmlns="http://www.w3.org/2000/svg">
    <path d="M12 0C5.373 0 0 5.373 0 12s5.373 12 12 12 12-5.373 12-12S18.627 0 12 0zm5.894 16.17h-1.77c-.66 0-.86-.5-2.05-1.7-1.01-1.01-1.46-1.13-1.69-1.13-.37 0-.47.27-.47 1.04v1.5c0 .77-.13 1.13-1.13 1.13-1.67 0-3.6-.92-5.01-2.63-1.9-2.35-2.38-3.78-2.38-4.1 0-.27.13-.5 1.04-.5h1.77c.77 0 1.04.27 1.3 1.13.66 2.38 1.77 4.1 2.25 4.1.27 0 .4-.13.4-.92v-2.63c-.13-1.13-.77-1.23-.77-1.67 0-.27.13-.5.4-.5h2.77c.37 0 .5.13.5.77v3.6c0 .4.13.5.4.5.27 0 .4-.13.77-.5 1.3-1.67 2.25-4.23 2.25-4.23.13-.27.4-.5 1.04-.5h1.77c.92 0 1.04.27.92.77-.13.77-1.67 4.1-1.67 4.1-.13.27-.13.4 0 .67.13.27.4.5.77.5 1.3 0 2.25-1.3 2.25-1.3.27-.27.4-.4.77-.4h1.77c.92 0 1.04.27.92.77-.13.77-1.67 4.1-1.67 4.1-.13.27-.13.4 0 .67.13.27.4.5.77.5z" fill="currentColor"/>
</svg> 